<svg width="212" height="251" version="1.1" xmlns="http://www.w3.org/2000/svg" desc="Created with imagetracer.js version 1.2.6" ><path fill="rgb(164,242,225)" stroke="rgb(164,242,225)" stroke-width="1" opacity="0.4392156862745098" d="M 3.5 2 L 102 2 L 102 247 Q 98.2 248.5 99 245.5 L 2 148.5 L 2 95.5 L 3.5 94 L 38.5 94 L 40 95.5 L 40 133.5 L 64.5 158 L 65 40 L 3.5 40 L 2 38.5 L 2 3.5 L 3.5 2 Z M 5 3 L 3 5 L 3 39 L 66 39 L 66 161 L 39 135 L 39 95 L 5 95 L 3 97 L 3 148 L 34 180 L 37 181 L 38 184 L 41 185 L 42 188 L 45 189 L 48 193 L 51 195 L 101 245 L 101 3 L 5 3 Z " /><path fill="rgb(164,242,225)" stroke="rgb(164,242,225)" stroke-width="1" opacity="0.4392156862745098" d="M 114 2 L 208.5 2 L 210 3.5 L 211 36.5 L 210 37.5 L 210 65.5 L 208.5 67 L 173 67 L 173 40 L 151 40 L 151.5 154 L 157 149.5 L 158.5 147 L 161 145.5 L 162.5 143 L 165 141.5 L 166.5 139 L 169 137.5 Q 168.3 135.3 170.5 136 L 173 133.5 L 173 94 L 210 94 L 210 150 L 208.5 150 L 181 177.5 Q 181.8 179.8 179.5 179 L 177 183 L 173 185.5 Q 173.8 187.8 171.5 187 L 169 191 L 165 193.5 Q 165.8 195.8 163.5 195 L 138.5 223 Q 136.3 222.3 137 224.5 L 131.5 231 Q 129.3 230.3 130 232.5 L 125 239 L 122 240.5 L 115.5 248 L 114 247.5 L 114 2 Z M 115 3 L 116 247 L 152 207 Q 151 204 154 205 L 209 149 L 209 95 L 174 95 L 174 134 L 151 157 L 150 39 L 174 39 L 174 66 L 208 66 L 209 65 L 209 5 L 208 3 L 115 3 Z " /><path fill="rgb(88,232,200)" stroke="rgb(88,232,200)" stroke-width="1" opacity="0.996078431372549" d="M 4.5 3 L 101 3 L 101 244.5 L 50.5 195 L 47.5 193 L 44.5 189 L 42 187.5 L 40.5 185 L 38 183.5 L 36.5 181 L 34 179.5 L 3 147.5 L 3 96.5 L 4.5 95 L 39 95 L 39 134.5 L 65.5 161 L 66 39 L 3 39 L 3 4.5 L 4.5 3 Z " /><path fill="rgb(88,232,200)" stroke="rgb(88,232,200)" stroke-width="1" opacity="0.996078431372549" d="M 115 3 L 207.5 3 L 209 4.5 L 209 64.5 L 207.5 66 L 174 66 L 174 39 L 150 39 L 150.5 157 L 174 133.5 L 174 95 L 209 95 L 209 148.5 L 153.5 205 Q 151.3 204.3 152 206.5 L 115.5 247 L 115 3 Z " /><path fill="rgb(0,0,0)" stroke="rgb(0,0,0)" stroke-width="1" opacity="0" d="M 0 0 L 212 0 L 212 251 L 0 251 L 0 0 Z M 4 2 L 2 4 L 2 39 L 4 40 L 65 40 L 65 158 L 40 134 L 40 96 L 39 94 L 4 94 L 2 96 L 2 149 L 99 246 Q 98 249 102 247 L 102 2 L 4 2 Z M 114 2 L 114 248 L 116 248 L 122 241 L 125 239 L 130 233 Q 129 230 132 231 L 137 225 Q 136 222 139 223 L 164 195 Q 166 196 165 194 L 169 191 L 172 187 Q 174 188 173 186 L 177 183 L 180 179 Q 182 180 181 178 L 209 150 L 210 150 L 210 94 L 173 94 L 173 134 L 171 136 Q 168 135 169 138 L 167 139 L 165 142 L 163 143 L 161 146 L 159 147 L 157 150 L 152 154 L 151 40 L 173 40 L 173 67 L 209 67 L 210 66 L 210 38 L 211 37 L 210 4 L 209 2 L 114 2 Z " /></svg>